<?xml version="1.0" encoding="UTF-8" standalone="no"?>
<!-- Created with Inkscape (http://www.inkscape.org/) -->

<svg
   xmlns:dc="http://purl.org/dc/elements/1.1/"
   xmlns:cc="http://creativecommons.org/ns#"
   xmlns:rdf="http://www.w3.org/1999/02/22-rdf-syntax-ns#"
   xmlns:svg="http://www.w3.org/2000/svg"
   xmlns="http://www.w3.org/2000/svg"
   xmlns:sodipodi="http://sodipodi.sourceforge.net/DTD/sodipodi-0.dtd"
   xmlns:inkscape="http://www.inkscape.org/namespaces/inkscape"
   width="50mm"
   height="30mm"
   viewBox="0 0 177.16535 106.29921"
   id="svg3709"
   version="1.1"
   inkscape:version="0.91 r13725"
   sodipodi:docname="Sharing.svg">
  <defs
     id="defs3711" />
  <sodipodi:namedview
     id="base"
     pagecolor="#ffffff"
     bordercolor="#666666"
     borderopacity="1.0"
     inkscape:pageopacity="0.0"
     inkscape:pageshadow="2"
     inkscape:zoom="5.6"
     inkscape:cx="47.174456"
     inkscape:cy="28.776483"
     inkscape:document-units="px"
     inkscape:current-layer="layer1"
     showgrid="false"
     inkscape:window-width="3440"
     inkscape:window-height="1364"
     inkscape:window-x="0"
     inkscape:window-y="24"
     inkscape:window-maximized="1" />
  <metadata
     id="metadata3714">
    <rdf:RDF>
      <cc:Work
         rdf:about="">
        <dc:format>image/svg+xml</dc:format>
        <dc:type
           rdf:resource="http://purl.org/dc/dcmitype/StillImage" />
        <dc:title></dc:title>
        <dc:contributor>
          <cc:Agent>
            <dc:title>Derived from https://commons.wikimedia.org/wiki/File:Team_icon_-_noun_project_20586.svg and https://commons.wikimedia.org/wiki/File:Bimetrical_icon_folder_black.svg</dc:title>
          </cc:Agent>
        </dc:contributor>
        <dc:identifier>Initially Johan H. W. Basberg + J. Xavier Atero, Synthesis by Charles Tilford</dc:identifier>
        <cc:license
           rdf:resource="http://creativecommons.org/licenses/by/3.0/" />
      </cc:Work>
      <cc:License
         rdf:about="http://creativecommons.org/licenses/by/3.0/">
        <cc:permits
           rdf:resource="http://creativecommons.org/ns#Reproduction" />
        <cc:permits
           rdf:resource="http://creativecommons.org/ns#Distribution" />
        <cc:requires
           rdf:resource="http://creativecommons.org/ns#Notice" />
        <cc:requires
           rdf:resource="http://creativecommons.org/ns#Attribution" />
        <cc:permits
           rdf:resource="http://creativecommons.org/ns#DerivativeWorks" />
      </cc:License>
    </rdf:RDF>
  </metadata>
  <g
     inkscape:label="Layer 1"
     inkscape:groupmode="layer"
     id="layer1"
     transform="translate(0,-946.06296)">
    <g
       style="fill:#1cce6d;fill-opacity:1;stroke:#ffffff;stroke-opacity:1"
       id="use5008"
       transform="matrix(0.55787101,0,0,0.53625862,68.581835,944.47762)"
       inkscape:tile-x0="-46.65984"
       inkscape:tile-y0="45.204221">
      <path
         style="fill:#1cce6d;fill-opacity:1;stroke:#ffffff;stroke-width:2;stroke-miterlimit:4;stroke-dasharray:none;stroke-opacity:1"
         id="path5204"
         d="m 47.965,35.389 c -12.567,0 -22.753,14.294 -22.753,31.927 0,8.415 2.324,18.357 6.116,15.07 0.499,11.574 7.548,15.765 16.196,15.765 8.833,0 16,-4.367 16.224,-16.521 4.295,3.853 6.972,-5.287 6.972,-14.317 0,-17.634 -10.189,-31.928 -22.755,-31.928"
         inkscape:connector-curvature="0" />
      <circle
         style="fill:#1cce6d;fill-opacity:1;stroke:#ffffff;stroke-width:2;stroke-miterlimit:4;stroke-dasharray:none;stroke-opacity:1"
         id="circle5206"
         r="11.02"
         cy="22.941999"
         cx="47.965" />
    </g>
    <g
       style="fill:#ce1c42;fill-opacity:1;stroke:#ffffff;stroke-opacity:1"
       id="use5006"
       transform="matrix(0.55787101,0,0,0.53625862,-6.4082148,955.19191)"
       inkscape:tile-x0="-46.65984"
       inkscape:tile-y0="45.204221">
      <path
         style="fill:#ce1c42;fill-opacity:1;stroke:#ffffff;stroke-width:2;stroke-miterlimit:4;stroke-dasharray:none;stroke-opacity:1"
         id="path5198"
         d="m 47.965,35.389 c -12.567,0 -22.753,14.294 -22.753,31.927 0,8.415 2.324,18.357 6.116,15.07 0.499,11.574 7.548,15.765 16.196,15.765 8.833,0 16,-4.367 16.224,-16.521 4.295,3.853 6.972,-5.287 6.972,-14.317 0,-17.634 -10.189,-31.928 -22.755,-31.928"
         inkscape:connector-curvature="0" />
      <circle
         style="fill:#ce1c42;fill-opacity:1;stroke:#ffffff;stroke-width:2;stroke-miterlimit:4;stroke-dasharray:none;stroke-opacity:1"
         id="circle5200"
         r="11.02"
         cy="22.941999"
         cx="47.965" />
    </g>
    <g
       style="fill:#ce7e1c;fill-opacity:1;stroke:#ffffff;stroke-opacity:1"
       id="use5010"
       transform="matrix(0.55787101,0,0,0.53625862,127.92903,953.9062)"
       inkscape:tile-x0="-46.65984"
       inkscape:tile-y0="45.204221">
      <path
         style="fill:#ce7e1c;fill-opacity:1;stroke:#ffffff;stroke-width:2;stroke-miterlimit:4;stroke-dasharray:none;stroke-opacity:1"
         id="path5210"
         d="m 47.965,35.389 c -12.567,0 -22.753,14.294 -22.753,31.927 0,8.415 2.324,18.357 6.116,15.07 0.499,11.574 7.548,15.765 16.196,15.765 8.833,0 16,-4.367 16.224,-16.521 4.295,3.853 6.972,-5.287 6.972,-14.317 0,-17.634 -10.189,-31.928 -22.755,-31.928"
         inkscape:connector-curvature="0" />
      <circle
         style="fill:#ce7e1c;fill-opacity:1;stroke:#ffffff;stroke-width:2;stroke-miterlimit:4;stroke-dasharray:none;stroke-opacity:1"
         id="circle5212"
         r="11.02"
         cy="22.941999"
         cx="47.965" />
    </g>
    <ellipse
       style="opacity:0.81069958;fill:none;fill-opacity:1;stroke:#0d046e;stroke-width:1.83354306;stroke-miterlimit:4;stroke-dasharray:none;stroke-opacity:1"
       id="path3783"
       cx="91.482071"
       cy="998.95007"
       rx="77.558128"
       ry="20.390072" />
    <path
       style="opacity:1;fill:#0e046e;fill-opacity:1;stroke:#ffffff;stroke-width:0.94794178;stroke-miterlimit:4;stroke-dasharray:none;stroke-opacity:1"
       d="m 92.348981,1013.9213 10.362719,5.403 -10.362719,4.6591 z"
       id="rect4587"
       inkscape:connector-curvature="0"
       sodipodi:nodetypes="cccc" />
    <g
       style="fill:#1c25ce;fill-opacity:1;stroke:#ffffff;stroke-opacity:1"
       id="use5004"
       transform="matrix(0.55787101,0,0,0.53625862,30.351745,983.22767)"
       inkscape:tile-x0="-46.65984"
       inkscape:tile-y0="45.204221">
      <path
         style="fill:#1c25ce;fill-opacity:1;stroke:#ffffff;stroke-width:2;stroke-miterlimit:4;stroke-dasharray:none;stroke-opacity:1"
         id="path5192"
         d="m 47.965,35.389 c -12.567,0 -22.753,14.294 -22.753,31.927 0,8.415 2.324,18.357 6.116,15.07 0.499,11.574 7.548,15.765 16.196,15.765 8.833,0 16,-4.367 16.224,-16.521 4.295,3.853 6.972,-5.287 6.972,-14.317 0,-17.634 -10.189,-31.928 -22.755,-31.928"
         inkscape:connector-curvature="0" />
      <circle
         style="fill:#1c25ce;fill-opacity:1;stroke:#ffffff;stroke-width:2;stroke-miterlimit:4;stroke-dasharray:none;stroke-opacity:1"
         id="circle5194"
         r="11.02"
         cy="22.941999"
         cx="47.965" />
    </g>
    <g
       style="fill:#1ccec5;fill-opacity:1;stroke:#ffffff;stroke-opacity:1"
       id="use5012"
       transform="matrix(0.55787101,0,0,0.53625862,99.740523,983.22767)"
       inkscape:tile-x0="-46.65984"
       inkscape:tile-y0="45.204221">
      <path
         style="fill:#1ccec5;fill-opacity:1;stroke:#ffffff;stroke-width:2;stroke-miterlimit:4;stroke-dasharray:none;stroke-opacity:1"
         id="path5216"
         d="m 47.965,35.389 c -12.567,0 -22.753,14.294 -22.753,31.927 0,8.415 2.324,18.357 6.116,15.07 0.499,11.574 7.548,15.765 16.196,15.765 8.833,0 16,-4.367 16.224,-16.521 4.295,3.853 6.972,-5.287 6.972,-14.317 0,-17.634 -10.189,-31.928 -22.755,-31.928"
         inkscape:connector-curvature="0" />
      <circle
         style="fill:#1ccec5;fill-opacity:1;stroke:#ffffff;stroke-width:2;stroke-miterlimit:4;stroke-dasharray:none;stroke-opacity:1"
         id="circle5218"
         r="11.02"
         cy="22.941999"
         cx="47.965" />
    </g>
    <path
       style="opacity:1;fill:#0e046e;fill-opacity:1;stroke:#ffffff;stroke-width:0.94794178;stroke-miterlimit:4;stroke-dasharray:none;stroke-opacity:1"
       d="m 22.142476,1003.8871 9.128899,7.8811 -10.355124,-0.2726 z"
       id="rect4587-3"
       inkscape:connector-curvature="0"
       sodipodi:nodetypes="cccc" />
    <path
       style="opacity:1;fill:#0e046e;fill-opacity:1;stroke:#ffffff;stroke-width:0.94794178;stroke-miterlimit:4;stroke-dasharray:none;stroke-opacity:1"
       d="m 66.709714,982.91927 -10.810569,-1.9171 9.707921,-5.4922 z"
       id="rect4587-6"
       inkscape:connector-curvature="0"
       sodipodi:nodetypes="cccc" />
    <path
       style="opacity:1;fill:#0e046e;fill-opacity:1;stroke:#ffffff;stroke-width:0.94794178;stroke-miterlimit:4;stroke-dasharray:none;stroke-opacity:1"
       d="m 139.19478,986.6645 -10.20472,-5.57853 10.78889,-2.9653 z"
       id="rect4587-7"
       inkscape:connector-curvature="0"
       sodipodi:nodetypes="cccc" />
    <path
       style="opacity:1;fill:#0e046e;fill-opacity:1;stroke:#ffffff;stroke-width:0.94794178;stroke-miterlimit:4;stroke-dasharray:none;stroke-opacity:1"
       d="m 154.41804,1006.3942 10.51711,-0.8083 -8.63525,8.8081 z"
       id="rect4587-5"
       inkscape:connector-curvature="0"
       sodipodi:nodetypes="cccc" />
    <rect
       style="opacity:1;fill:#ffffff;fill-opacity:1;stroke:#ffffff;stroke-width:1.00134504;stroke-miterlimit:4;stroke-dasharray:none;stroke-opacity:1"
       id="rect4704"
       width="15.121942"
       height="13.291584"
       x="86.724739"
       y="983.77441" />
    <g
       transform="matrix(0.92283561,0,0,0.86671593,541.41217,494.18323)"
       id="bimetrical-layer-1"
       inkscape:label="Capa 1"
       style="fill:#6e0468;fill-opacity:1">
      <path
         style="fill:#6e0468;fill-opacity:1;stroke:none;stroke-width:0.99999952;stroke-opacity:1"
         d="m -494.16097,562.93364 c -0.91673,0 -1.63753,0.74775 -1.63753,1.65704 l 0,9.03749 2.60871,0 0,-8.31796 17.33471,0 0,11.67421 2.39842,0 0,-12.53905 c -10e-4,-0.8283 -0.69846,-1.51173 -1.53358,-1.51173 z m 4.5936,5.03204 c -0.68463,0 -1.24054,0.61351 -1.24054,1.29374 0,0.68023 0.55708,1.29375 1.24054,1.29375 l 9.93155,0 c 0.68697,0 1.24056,-0.61352 1.24056,-1.29375 0,-0.68023 -0.55592,-1.29374 -1.24056,-1.29374 z m 0,4.75311 c -0.59598,0 -1.09444,0.46799 -1.21456,1.04063 0.85025,0.21517 1.62501,0.67559 2.207,1.35235 l 0.17961,0.19452 8.7595,0 c 0.68697,0 1.24056,-0.61351 1.24056,-1.29375 0,-0.68023 -0.55592,-1.29375 -1.24056,-1.29375 z m -10.527,2.5875 c -0.58783,0 -1.14624,0.273 -1.52648,0.71954 -0.37906,0.4477 -0.54102,1.06098 -0.44187,1.63593 l 0.21976,1.27969 -0.14414,0 c -0.46188,0 -0.89945,0.18498 -1.19803,0.53203 -0.30324,0.34822 -0.43504,0.80158 -0.3639,1.25391 l 2.56146,16.48358 c 0.15513,0.99142 1.01386,1.72266 2.02506,1.72266 l 26.59045,0 c 0.46185,0 0.89943,-0.20251 1.19801,-0.5461 0.29976,-0.34706 0.43509,-0.79689 0.36626,-1.24921 l -2.5071,-16.87031 c -0.11663,-0.77046 -0.78287,-1.32656 -1.56665,-1.32656 l -12.69621,0 -2.30625,-2.70703 c -0.4887,-0.56916 -1.20663,-0.92813 -1.96127,-0.92813 z m 28.19725,1.18594 0.64037,5.89453 1.5312,10.29843 2.14322,-14.45155 c 0.0595,-0.43037 -0.0663,-0.87384 -0.35445,-1.20469 -0.28576,-0.32971 -0.70398,-0.53672 -1.14368,-0.53672 z"
         id="bimetrical-path-folder"
         inkscape:connector-curvature="0" />
    </g>
  </g>
</svg>
