<svg xmlns="http://www.w3.org/2000/svg" width="100px" height="100px" viewBox="0 0 100 100">
<circle cx="19.618" cy="14.444" r="9.498"/>
<path d="m47.965 35.389c-12.567 0-22.753 14.294-22.753 31.927 0 8.415 2.324 18.357 6.116 15.07.499 11.574 7.548 15.765 16.196 15.765 8.833 0 16-4.367 16.224-16.521 4.295 3.853 6.972-5.287 6.972-14.317 0-17.634-10.189-31.928-22.755-31.928"/>
<circle cx="47.965" cy="22.942" r="11.02"/>
<path d="m21.01 67.31c0-13.427 5.498-25.16 13.631-31.385-3.6-6.01-8.992-9.843-15.03-9.843-10.835.0001-19.618 12.325-19.618 27.527 0 7.256 2 6.438 5.273 3.608.431 9.979 6.508 13.593 13.964 13.593.66 0 1.303-.04 1.939-.099-.159-1.37-.163-2.621-.163-3.401"/>
<path d="m80.11 21.237c-7.37 0-13.798 6.443-17.233 16.01 7.251 6.481 12.04 17.54 12.04 30.07 0 1.074-.007 3.037-.424 4.994 1.62.549 3.383.805 5.234.805 7.719 0 13.986-4.367 14.177-16.521 3.754 3.852 6.094 5.601 6.094-3.428 0-17.634-8.903-31.928-19.886-31.928"/>
<circle cx="80.11" cy="10.684" r="8.838"/>
</svg>